<mxfile host="Electron" modified="2024-04-30T13:28:27.719Z" agent="Mozilla/5.0 (Windows NT 10.0; Win64; x64) AppleWebKit/537.36 (KHTML, like Gecko) draw.io/24.2.5 Chrome/120.0.6099.109 Electron/28.1.0 Safari/537.36" etag="rPOSp2Itaztlarje9ujv" version="24.2.5" type="device">
  <diagram id="C5RBs43oDa-KdzZeNtuy" name="Page-1">
    <mxGraphModel dx="1050" dy="621" grid="1" gridSize="10" guides="1" tooltips="1" connect="1" arrows="1" fold="1" page="1" pageScale="1" pageWidth="827" pageHeight="1169" math="0" shadow="0">
      <root>
        <mxCell id="WIyWlLk6GJQsqaUBKTNV-0" />
        <mxCell id="WIyWlLk6GJQsqaUBKTNV-1" parent="WIyWlLk6GJQsqaUBKTNV-0" />
        <mxCell id="6EwqOUl9h-K7hUrrgeM3-1" value="STOP" style="ellipse;whiteSpace=wrap;html=1;" vertex="1" parent="WIyWlLk6GJQsqaUBKTNV-1">
          <mxGeometry x="320" y="490" width="120" height="70" as="geometry" />
        </mxCell>
        <mxCell id="6EwqOUl9h-K7hUrrgeM3-19" style="edgeStyle=orthogonalEdgeStyle;rounded=0;orthogonalLoop=1;jettySize=auto;html=1;exitX=0.5;exitY=1;exitDx=0;exitDy=0;" edge="1" parent="WIyWlLk6GJQsqaUBKTNV-1" source="6EwqOUl9h-K7hUrrgeM3-2">
          <mxGeometry relative="1" as="geometry">
            <mxPoint x="398" y="130" as="targetPoint" />
          </mxGeometry>
        </mxCell>
        <mxCell id="6EwqOUl9h-K7hUrrgeM3-2" value="START" style="ellipse;whiteSpace=wrap;html=1;" vertex="1" parent="WIyWlLk6GJQsqaUBKTNV-1">
          <mxGeometry x="338" y="20" width="120" height="70" as="geometry" />
        </mxCell>
        <mxCell id="6EwqOUl9h-K7hUrrgeM3-3" value="Van-e kapszula?" style="rhombus;whiteSpace=wrap;html=1;" vertex="1" parent="WIyWlLk6GJQsqaUBKTNV-1">
          <mxGeometry x="333" y="130" width="130" height="60" as="geometry" />
        </mxCell>
        <mxCell id="6EwqOUl9h-K7hUrrgeM3-8" value="" style="rounded=0;whiteSpace=wrap;html=1;" vertex="1" parent="WIyWlLk6GJQsqaUBKTNV-1">
          <mxGeometry x="336" y="231" width="140" height="40" as="geometry" />
        </mxCell>
        <mxCell id="6EwqOUl9h-K7hUrrgeM3-9" value="" style="rounded=0;whiteSpace=wrap;html=1;" vertex="1" parent="WIyWlLk6GJQsqaUBKTNV-1">
          <mxGeometry x="333" y="310" width="140" height="40" as="geometry" />
        </mxCell>
        <mxCell id="6EwqOUl9h-K7hUrrgeM3-10" value="" style="rounded=0;whiteSpace=wrap;html=1;" vertex="1" parent="WIyWlLk6GJQsqaUBKTNV-1">
          <mxGeometry x="333" y="390" width="140" height="40" as="geometry" />
        </mxCell>
        <mxCell id="6EwqOUl9h-K7hUrrgeM3-13" value="Van-e kapszula?" style="rounded=0;whiteSpace=wrap;html=1;" vertex="1" parent="WIyWlLk6GJQsqaUBKTNV-1">
          <mxGeometry x="530" y="140" width="110" height="40" as="geometry" />
        </mxCell>
        <mxCell id="6EwqOUl9h-K7hUrrgeM3-23" value="" style="endArrow=classic;html=1;rounded=0;exitX=0.5;exitY=1;exitDx=0;exitDy=0;entryX=0.446;entryY=0;entryDx=0;entryDy=0;entryPerimeter=0;" edge="1" parent="WIyWlLk6GJQsqaUBKTNV-1" source="6EwqOUl9h-K7hUrrgeM3-3" target="6EwqOUl9h-K7hUrrgeM3-8">
          <mxGeometry width="50" height="50" relative="1" as="geometry">
            <mxPoint x="390" y="350" as="sourcePoint" />
            <mxPoint x="500" y="300" as="targetPoint" />
          </mxGeometry>
        </mxCell>
        <mxCell id="6EwqOUl9h-K7hUrrgeM3-24" value="" style="endArrow=classic;html=1;rounded=0;" edge="1" parent="WIyWlLk6GJQsqaUBKTNV-1">
          <mxGeometry width="50" height="50" relative="1" as="geometry">
            <mxPoint x="400" y="269" as="sourcePoint" />
            <mxPoint x="400" y="309" as="targetPoint" />
          </mxGeometry>
        </mxCell>
        <mxCell id="6EwqOUl9h-K7hUrrgeM3-25" value="" style="endArrow=classic;html=1;rounded=0;exitX=0.5;exitY=1;exitDx=0;exitDy=0;entryX=0.5;entryY=0;entryDx=0;entryDy=0;" edge="1" parent="WIyWlLk6GJQsqaUBKTNV-1" source="6EwqOUl9h-K7hUrrgeM3-9" target="6EwqOUl9h-K7hUrrgeM3-10">
          <mxGeometry width="50" height="50" relative="1" as="geometry">
            <mxPoint x="350" y="350" as="sourcePoint" />
            <mxPoint x="403" y="370" as="targetPoint" />
          </mxGeometry>
        </mxCell>
        <mxCell id="6EwqOUl9h-K7hUrrgeM3-27" value="" style="ellipse;whiteSpace=wrap;html=1;aspect=fixed;" vertex="1" parent="WIyWlLk6GJQsqaUBKTNV-1">
          <mxGeometry x="393" y="199" width="10" height="10" as="geometry" />
        </mxCell>
        <mxCell id="6EwqOUl9h-K7hUrrgeM3-36" value="" style="endArrow=classic;html=1;rounded=0;" edge="1" parent="WIyWlLk6GJQsqaUBKTNV-1">
          <mxGeometry width="50" height="50" relative="1" as="geometry">
            <mxPoint x="463" y="159.5" as="sourcePoint" />
            <mxPoint x="528" y="159.5" as="targetPoint" />
            <Array as="points">
              <mxPoint x="528" y="159.5" />
            </Array>
          </mxGeometry>
        </mxCell>
        <mxCell id="6EwqOUl9h-K7hUrrgeM3-37" value="" style="endArrow=classic;html=1;rounded=0;exitX=0.5;exitY=1;exitDx=0;exitDy=0;entryX=1;entryY=0.5;entryDx=0;entryDy=0;" edge="1" parent="WIyWlLk6GJQsqaUBKTNV-1" source="6EwqOUl9h-K7hUrrgeM3-13" target="6EwqOUl9h-K7hUrrgeM3-27">
          <mxGeometry width="50" height="50" relative="1" as="geometry">
            <mxPoint x="590" y="271" as="sourcePoint" />
            <mxPoint x="410" y="210" as="targetPoint" />
            <Array as="points">
              <mxPoint x="585" y="204" />
            </Array>
          </mxGeometry>
        </mxCell>
      </root>
    </mxGraphModel>
  </diagram>
</mxfile>
